<svg width="29" height="25" viewBox="0 0 29 25" fill="none" xmlns="http://www.w3.org/2000/svg">
<path d="M4.5 3C4.5 1.34314 5.84315 0 7.5 0H21.5C23.1568 0 24.5 1.34315 24.5 3V17C24.5 18.6568 23.1568 20 21.5 20H7.5C5.84314 20 4.5 18.6568 4.5 17V3Z" fill="#171717" fill-opacity="0.3"/>
<path d="M7.5 0.5H21.5C22.8807 0.500003 24 1.61929 24 3V17C24 18.3807 22.8807 19.5 21.5 19.5H7.5C6.11929 19.5 5 18.3807 5 17V3C5 1.61929 6.11929 0.5 7.5 0.5Z" stroke="#171717" stroke-opacity="0.4"/>
<path d="M28.5 13V17C28.5 20.866 25.366 24 21.5 24H7.5C3.634 24 0.5 20.866 0.5 17V13" stroke="#171717" stroke-opacity="0.3" stroke-linecap="round"/>
</svg>
